<?xml version="1.0" encoding="utf-8" standalone="no"?>
<!DOCTYPE svg PUBLIC "-//W3C//DTD SVG 1.1//EN"
  "http://www.w3.org/Graphics/SVG/1.1/DTD/svg11.dtd">
<svg xmlns:xlink="http://www.w3.org/1999/xlink" width="468pt" height="216pt" viewBox="0 0 468 216" xmlns="http://www.w3.org/2000/svg" version="1.1">
 <metadata>
  <rdf:RDF xmlns:dc="http://purl.org/dc/elements/1.1/" xmlns:cc="http://creativecommons.org/ns#" xmlns:rdf="http://www.w3.org/1999/02/22-rdf-syntax-ns#">
   <cc:Work>
    <dc:type rdf:resource="http://purl.org/dc/dcmitype/StillImage"/>
    <dc:date>2024-10-16T17:54:10.604010</dc:date>
    <dc:format>image/svg+xml</dc:format>
    <dc:creator>
     <cc:Agent>
      <dc:title>Matplotlib v3.7.2, https://matplotlib.org/</dc:title>
     </cc:Agent>
    </dc:creator>
   </cc:Work>
  </rdf:RDF>
 </metadata>
 <defs>
  <style type="text/css">*{stroke-linejoin: round; stroke-linecap: butt}</style>
 </defs>
 <g id="figure_1">
  <g id="patch_1">
   <path d="M 0 216 
L 468 216 
L 468 0 
L 0 0 
z
" style="fill: #ffffff; stroke: #ffffff; stroke-width: 2; stroke-linejoin: miter"/>
  </g>
  <g id="axes_1">
   <g id="patch_2">
    <path d="M 69.338 167.56 
L 246.624 167.56 
L 246.624 10.8 
L 69.338 10.8 
z
" style="fill: #ffffff"/>
   </g>
   <g id="matplotlib.axis_1">
    <g id="xtick_1">
     <g id="line2d_1">
      <defs>
       <path id="meb10163d0d" d="M 0 0 
L 0 3.5 
" style="stroke: #000000; stroke-width: 0.8"/>
      </defs>
      <g>
       <use xlink:href="#meb10163d0d" x="90.195176" y="167.56" style="stroke: #000000; stroke-width: 0.8"/>
      </g>
     </g>
     <g id="text_1">
      <!-- 0.4 -->
      <g transform="translate(80.653301 183.678125) scale(0.12 -0.12)">
       <defs>
        <path id="DejaVuSans-30" d="M 2034 4250 
Q 1547 4250 1301 3770 
Q 1056 3291 1056 2328 
Q 1056 1369 1301 889 
Q 1547 409 2034 409 
Q 2525 409 2770 889 
Q 3016 1369 3016 2328 
Q 3016 3291 2770 3770 
Q 2525 4250 2034 4250 
z
M 2034 4750 
Q 2819 4750 3233 4129 
Q 3647 3509 3647 2328 
Q 3647 1150 3233 529 
Q 2819 -91 2034 -91 
Q 1250 -91 836 529 
Q 422 1150 422 2328 
Q 422 3509 836 4129 
Q 1250 4750 2034 4750 
z
" transform="scale(0.015625)"/>
        <path id="DejaVuSans-2e" d="M 684 794 
L 1344 794 
L 1344 0 
L 684 0 
L 684 794 
z
" transform="scale(0.015625)"/>
        <path id="DejaVuSans-34" d="M 2419 4116 
L 825 1625 
L 2419 1625 
L 2419 4116 
z
M 2253 4666 
L 3047 4666 
L 3047 1625 
L 3713 1625 
L 3713 1100 
L 3047 1100 
L 3047 0 
L 2419 0 
L 2419 1100 
L 313 1100 
L 313 1709 
L 2253 4666 
z
" transform="scale(0.015625)"/>
       </defs>
       <use xlink:href="#DejaVuSans-30"/>
       <use xlink:href="#DejaVuSans-2e" x="63.623047"/>
       <use xlink:href="#DejaVuSans-34" x="95.410156"/>
      </g>
     </g>
    </g>
    <g id="xtick_2">
     <g id="line2d_2">
      <g>
       <use xlink:href="#meb10163d0d" x="142.338118" y="167.56" style="stroke: #000000; stroke-width: 0.8"/>
      </g>
     </g>
     <g id="text_2">
      <!-- 0.6 -->
      <g transform="translate(132.796243 183.678125) scale(0.12 -0.12)">
       <defs>
        <path id="DejaVuSans-36" d="M 2113 2584 
Q 1688 2584 1439 2293 
Q 1191 2003 1191 1497 
Q 1191 994 1439 701 
Q 1688 409 2113 409 
Q 2538 409 2786 701 
Q 3034 994 3034 1497 
Q 3034 2003 2786 2293 
Q 2538 2584 2113 2584 
z
M 3366 4563 
L 3366 3988 
Q 3128 4100 2886 4159 
Q 2644 4219 2406 4219 
Q 1781 4219 1451 3797 
Q 1122 3375 1075 2522 
Q 1259 2794 1537 2939 
Q 1816 3084 2150 3084 
Q 2853 3084 3261 2657 
Q 3669 2231 3669 1497 
Q 3669 778 3244 343 
Q 2819 -91 2113 -91 
Q 1303 -91 875 529 
Q 447 1150 447 2328 
Q 447 3434 972 4092 
Q 1497 4750 2381 4750 
Q 2619 4750 2861 4703 
Q 3103 4656 3366 4563 
z
" transform="scale(0.015625)"/>
       </defs>
       <use xlink:href="#DejaVuSans-30"/>
       <use xlink:href="#DejaVuSans-2e" x="63.623047"/>
       <use xlink:href="#DejaVuSans-36" x="95.410156"/>
      </g>
     </g>
    </g>
    <g id="xtick_3">
     <g id="line2d_3">
      <g>
       <use xlink:href="#meb10163d0d" x="194.481059" y="167.56" style="stroke: #000000; stroke-width: 0.8"/>
      </g>
     </g>
     <g id="text_3">
      <!-- 0.8 -->
      <g transform="translate(184.939184 183.678125) scale(0.12 -0.12)">
       <defs>
        <path id="DejaVuSans-38" d="M 2034 2216 
Q 1584 2216 1326 1975 
Q 1069 1734 1069 1313 
Q 1069 891 1326 650 
Q 1584 409 2034 409 
Q 2484 409 2743 651 
Q 3003 894 3003 1313 
Q 3003 1734 2745 1975 
Q 2488 2216 2034 2216 
z
M 1403 2484 
Q 997 2584 770 2862 
Q 544 3141 544 3541 
Q 544 4100 942 4425 
Q 1341 4750 2034 4750 
Q 2731 4750 3128 4425 
Q 3525 4100 3525 3541 
Q 3525 3141 3298 2862 
Q 3072 2584 2669 2484 
Q 3125 2378 3379 2068 
Q 3634 1759 3634 1313 
Q 3634 634 3220 271 
Q 2806 -91 2034 -91 
Q 1263 -91 848 271 
Q 434 634 434 1313 
Q 434 1759 690 2068 
Q 947 2378 1403 2484 
z
M 1172 3481 
Q 1172 3119 1398 2916 
Q 1625 2713 2034 2713 
Q 2441 2713 2670 2916 
Q 2900 3119 2900 3481 
Q 2900 3844 2670 4047 
Q 2441 4250 2034 4250 
Q 1625 4250 1398 4047 
Q 1172 3844 1172 3481 
z
" transform="scale(0.015625)"/>
       </defs>
       <use xlink:href="#DejaVuSans-30"/>
       <use xlink:href="#DejaVuSans-2e" x="63.623047"/>
       <use xlink:href="#DejaVuSans-38" x="95.410156"/>
      </g>
     </g>
    </g>
    <g id="xtick_4">
     <g id="line2d_4">
      <g>
       <use xlink:href="#meb10163d0d" x="246.624" y="167.56" style="stroke: #000000; stroke-width: 0.8"/>
      </g>
     </g>
     <g id="text_4">
      <!-- 1.0 -->
      <g transform="translate(237.082125 183.678125) scale(0.12 -0.12)">
       <defs>
        <path id="DejaVuSans-31" d="M 794 531 
L 1825 531 
L 1825 4091 
L 703 3866 
L 703 4441 
L 1819 4666 
L 2450 4666 
L 2450 531 
L 3481 531 
L 3481 0 
L 794 0 
L 794 531 
z
" transform="scale(0.015625)"/>
       </defs>
       <use xlink:href="#DejaVuSans-31"/>
       <use xlink:href="#DejaVuSans-2e" x="63.623047"/>
       <use xlink:href="#DejaVuSans-30" x="95.410156"/>
      </g>
     </g>
    </g>
    <g id="text_5">
     <!-- R / nm -->
     <g transform="translate(135.054906 200.811563) scale(0.14 -0.14)">
      <defs>
       <path id="DejaVuSans-52" d="M 2841 2188 
Q 3044 2119 3236 1894 
Q 3428 1669 3622 1275 
L 4263 0 
L 3584 0 
L 2988 1197 
Q 2756 1666 2539 1819 
Q 2322 1972 1947 1972 
L 1259 1972 
L 1259 0 
L 628 0 
L 628 4666 
L 2053 4666 
Q 2853 4666 3247 4331 
Q 3641 3997 3641 3322 
Q 3641 2881 3436 2590 
Q 3231 2300 2841 2188 
z
M 1259 4147 
L 1259 2491 
L 2053 2491 
Q 2509 2491 2742 2702 
Q 2975 2913 2975 3322 
Q 2975 3731 2742 3939 
Q 2509 4147 2053 4147 
L 1259 4147 
z
" transform="scale(0.015625)"/>
       <path id="DejaVuSans-20" transform="scale(0.015625)"/>
       <path id="DejaVuSans-2f" d="M 1625 4666 
L 2156 4666 
L 531 -594 
L 0 -594 
L 1625 4666 
z
" transform="scale(0.015625)"/>
       <path id="DejaVuSans-6e" d="M 3513 2113 
L 3513 0 
L 2938 0 
L 2938 2094 
Q 2938 2591 2744 2837 
Q 2550 3084 2163 3084 
Q 1697 3084 1428 2787 
Q 1159 2491 1159 1978 
L 1159 0 
L 581 0 
L 581 3500 
L 1159 3500 
L 1159 2956 
Q 1366 3272 1645 3428 
Q 1925 3584 2291 3584 
Q 2894 3584 3203 3211 
Q 3513 2838 3513 2113 
z
" transform="scale(0.015625)"/>
       <path id="DejaVuSans-6d" d="M 3328 2828 
Q 3544 3216 3844 3400 
Q 4144 3584 4550 3584 
Q 5097 3584 5394 3201 
Q 5691 2819 5691 2113 
L 5691 0 
L 5113 0 
L 5113 2094 
Q 5113 2597 4934 2840 
Q 4756 3084 4391 3084 
Q 3944 3084 3684 2787 
Q 3425 2491 3425 1978 
L 3425 0 
L 2847 0 
L 2847 2094 
Q 2847 2600 2669 2842 
Q 2491 3084 2119 3084 
Q 1678 3084 1418 2786 
Q 1159 2488 1159 1978 
L 1159 0 
L 581 0 
L 581 3500 
L 1159 3500 
L 1159 2956 
Q 1356 3278 1631 3431 
Q 1906 3584 2284 3584 
Q 2666 3584 2933 3390 
Q 3200 3197 3328 2828 
z
" transform="scale(0.015625)"/>
      </defs>
      <use xlink:href="#DejaVuSans-52"/>
      <use xlink:href="#DejaVuSans-20" x="69.482422"/>
      <use xlink:href="#DejaVuSans-2f" x="101.269531"/>
      <use xlink:href="#DejaVuSans-20" x="134.960938"/>
      <use xlink:href="#DejaVuSans-6e" x="166.748047"/>
      <use xlink:href="#DejaVuSans-6d" x="230.126953"/>
     </g>
    </g>
   </g>
   <g id="matplotlib.axis_2">
    <g id="ytick_1">
     <g id="line2d_5">
      <defs>
       <path id="m33d4fa4dc5" d="M 0 0 
L -3.5 0 
" style="stroke: #000000; stroke-width: 0.8"/>
      </defs>
      <g>
       <use xlink:href="#m33d4fa4dc5" x="69.338" y="151.012753" style="stroke: #000000; stroke-width: 0.8"/>
      </g>
     </g>
     <g id="text_6">
      <!-- −0.5 -->
      <g transform="translate(33.198625 155.571815) scale(0.12 -0.12)">
       <defs>
        <path id="DejaVuSans-2212" d="M 678 2272 
L 4684 2272 
L 4684 1741 
L 678 1741 
L 678 2272 
z
" transform="scale(0.015625)"/>
        <path id="DejaVuSans-35" d="M 691 4666 
L 3169 4666 
L 3169 4134 
L 1269 4134 
L 1269 2991 
Q 1406 3038 1543 3061 
Q 1681 3084 1819 3084 
Q 2600 3084 3056 2656 
Q 3513 2228 3513 1497 
Q 3513 744 3044 326 
Q 2575 -91 1722 -91 
Q 1428 -91 1123 -41 
Q 819 9 494 109 
L 494 744 
Q 775 591 1075 516 
Q 1375 441 1709 441 
Q 2250 441 2565 725 
Q 2881 1009 2881 1497 
Q 2881 1984 2565 2268 
Q 2250 2553 1709 2553 
Q 1456 2553 1204 2497 
Q 953 2441 691 2322 
L 691 4666 
z
" transform="scale(0.015625)"/>
       </defs>
       <use xlink:href="#DejaVuSans-2212"/>
       <use xlink:href="#DejaVuSans-30" x="83.789062"/>
       <use xlink:href="#DejaVuSans-2e" x="147.412109"/>
       <use xlink:href="#DejaVuSans-35" x="179.199219"/>
      </g>
     </g>
    </g>
    <g id="ytick_2">
     <g id="line2d_6">
      <g>
       <use xlink:href="#m33d4fa4dc5" x="69.338" y="103.690828" style="stroke: #000000; stroke-width: 0.8"/>
      </g>
     </g>
     <g id="text_7">
      <!-- 0.0 -->
      <g transform="translate(43.25425 108.24989) scale(0.12 -0.12)">
       <use xlink:href="#DejaVuSans-30"/>
       <use xlink:href="#DejaVuSans-2e" x="63.623047"/>
       <use xlink:href="#DejaVuSans-30" x="95.410156"/>
      </g>
     </g>
    </g>
    <g id="ytick_3">
     <g id="line2d_7">
      <g>
       <use xlink:href="#m33d4fa4dc5" x="69.338" y="56.368902" style="stroke: #000000; stroke-width: 0.8"/>
      </g>
     </g>
     <g id="text_8">
      <!-- 0.5 -->
      <g transform="translate(43.25425 60.927965) scale(0.12 -0.12)">
       <use xlink:href="#DejaVuSans-30"/>
       <use xlink:href="#DejaVuSans-2e" x="63.623047"/>
       <use xlink:href="#DejaVuSans-35" x="95.410156"/>
      </g>
     </g>
    </g>
    <g id="text_9">
     <!-- V(R) / $kJ \cdot mol^{-1}$ -->
     <g transform="translate(26.258625 143.22) rotate(-90) scale(0.14 -0.14)">
      <defs>
       <path id="DejaVuSans-56" d="M 1831 0 
L 50 4666 
L 709 4666 
L 2188 738 
L 3669 4666 
L 4325 4666 
L 2547 0 
L 1831 0 
z
" transform="scale(0.015625)"/>
       <path id="DejaVuSans-28" d="M 1984 4856 
Q 1566 4138 1362 3434 
Q 1159 2731 1159 2009 
Q 1159 1288 1364 580 
Q 1569 -128 1984 -844 
L 1484 -844 
Q 1016 -109 783 600 
Q 550 1309 550 2009 
Q 550 2706 781 3412 
Q 1013 4119 1484 4856 
L 1984 4856 
z
" transform="scale(0.015625)"/>
       <path id="DejaVuSans-29" d="M 513 4856 
L 1013 4856 
Q 1481 4119 1714 3412 
Q 1947 2706 1947 2009 
Q 1947 1309 1714 600 
Q 1481 -109 1013 -844 
L 513 -844 
Q 928 -128 1133 580 
Q 1338 1288 1338 2009 
Q 1338 2731 1133 3434 
Q 928 4138 513 4856 
z
" transform="scale(0.015625)"/>
       <path id="DejaVuSans-Oblique-6b" d="M 1172 4863 
L 1747 4863 
L 1197 2028 
L 3169 3500 
L 3916 3500 
L 1716 1825 
L 3322 0 
L 2625 0 
L 1131 1709 
L 800 0 
L 225 0 
L 1172 4863 
z
" transform="scale(0.015625)"/>
       <path id="DejaVuSans-Oblique-4a" d="M 1069 4666 
L 1703 4666 
L 856 325 
Q 691 -522 298 -901 
Q -94 -1281 -800 -1281 
L -1050 -1281 
L -947 -750 
L -750 -750 
Q -328 -750 -109 -509 
Q 109 -269 225 325 
L 1069 4666 
z
" transform="scale(0.015625)"/>
       <path id="DejaVuSans-22c5" d="M 684 2619 
L 1344 2619 
L 1344 1825 
L 684 1825 
L 684 2619 
z
" transform="scale(0.015625)"/>
       <path id="DejaVuSans-Oblique-6d" d="M 5747 2113 
L 5338 0 
L 4763 0 
L 5166 2094 
Q 5191 2228 5203 2325 
Q 5216 2422 5216 2491 
Q 5216 2772 5059 2928 
Q 4903 3084 4622 3084 
Q 4203 3084 3875 2770 
Q 3547 2456 3450 1953 
L 3066 0 
L 2491 0 
L 2900 2094 
Q 2925 2209 2937 2307 
Q 2950 2406 2950 2484 
Q 2950 2769 2794 2926 
Q 2638 3084 2363 3084 
Q 1938 3084 1609 2770 
Q 1281 2456 1184 1953 
L 800 0 
L 225 0 
L 909 3500 
L 1484 3500 
L 1375 2956 
Q 1609 3263 1923 3423 
Q 2238 3584 2597 3584 
Q 2978 3584 3223 3384 
Q 3469 3184 3519 2828 
Q 3781 3197 4126 3390 
Q 4472 3584 4856 3584 
Q 5306 3584 5551 3325 
Q 5797 3066 5797 2591 
Q 5797 2488 5784 2364 
Q 5772 2241 5747 2113 
z
" transform="scale(0.015625)"/>
       <path id="DejaVuSans-Oblique-6f" d="M 1625 -91 
Q 1009 -91 651 289 
Q 294 669 294 1325 
Q 294 1706 417 2101 
Q 541 2497 738 2766 
Q 1047 3184 1428 3384 
Q 1809 3584 2291 3584 
Q 2888 3584 3255 3212 
Q 3622 2841 3622 2241 
Q 3622 1825 3500 1412 
Q 3378 1000 3181 728 
Q 2875 309 2494 109 
Q 2113 -91 1625 -91 
z
M 891 1344 
Q 891 869 1089 633 
Q 1288 397 1691 397 
Q 2269 397 2648 901 
Q 3028 1406 3028 2181 
Q 3028 2634 2825 2865 
Q 2622 3097 2228 3097 
Q 1903 3097 1650 2945 
Q 1397 2794 1197 2484 
Q 1050 2253 970 1956 
Q 891 1659 891 1344 
z
" transform="scale(0.015625)"/>
       <path id="DejaVuSans-Oblique-6c" d="M 1172 4863 
L 1747 4863 
L 800 0 
L 225 0 
L 1172 4863 
z
" transform="scale(0.015625)"/>
      </defs>
      <use xlink:href="#DejaVuSans-56" transform="translate(0 0.684375)"/>
      <use xlink:href="#DejaVuSans-28" transform="translate(68.408203 0.684375)"/>
      <use xlink:href="#DejaVuSans-52" transform="translate(107.421875 0.684375)"/>
      <use xlink:href="#DejaVuSans-29" transform="translate(176.904297 0.684375)"/>
      <use xlink:href="#DejaVuSans-20" transform="translate(215.917969 0.684375)"/>
      <use xlink:href="#DejaVuSans-2f" transform="translate(247.705078 0.684375)"/>
      <use xlink:href="#DejaVuSans-20" transform="translate(281.396484 0.684375)"/>
      <use xlink:href="#DejaVuSans-Oblique-6b" transform="translate(313.183594 0.684375)"/>
      <use xlink:href="#DejaVuSans-Oblique-4a" transform="translate(371.09375 0.684375)"/>
      <use xlink:href="#DejaVuSans-22c5" transform="translate(420.068359 0.684375)"/>
      <use xlink:href="#DejaVuSans-Oblique-6d" transform="translate(471.337891 0.684375)"/>
      <use xlink:href="#DejaVuSans-Oblique-6f" transform="translate(568.75 0.684375)"/>
      <use xlink:href="#DejaVuSans-Oblique-6c" transform="translate(629.931641 0.684375)"/>
      <use xlink:href="#DejaVuSans-2212" transform="translate(665.162552 38.965625) scale(0.7)"/>
      <use xlink:href="#DejaVuSans-31" transform="translate(723.814896 38.965625) scale(0.7)"/>
     </g>
    </g>
   </g>
   <g id="line2d_8">
    <path d="M 69.338 63.761251 
L 70.401822 87.143344 
L 71.447914 105.44294 
L 72.476276 119.713463 
L 73.486907 130.783526 
L 74.479808 139.307228 
L 75.437248 145.699133 
L 76.359228 150.444646 
L 77.245746 153.917532 
L 78.096804 156.406799 
L 78.912401 158.136764 
L 79.674807 159.261069 
L 80.401753 159.954115 
L 81.093237 160.31825 
L 81.784722 160.434509 
L 82.511667 160.327173 
L 83.309534 159.979407 
L 84.249244 159.313962 
L 85.366257 158.235884 
L 86.766957 156.554667 
L 88.610915 153.968851 
L 91.554157 149.406016 
L 97.36972 140.373076 
L 100.454805 136.026568 
L 103.309395 132.382791 
L 106.075333 129.208573 
L 108.823541 126.39004 
L 111.589479 123.8682 
L 114.426339 121.581094 
L 117.35185 119.507458 
L 120.401474 117.618389 
L 123.610672 115.892984 
L 127.014903 114.3167 
L 130.66736 112.873292 
L 134.603503 111.559294 
L 138.911984 110.358957 
L 143.663724 109.270104 
L 148.965105 108.287737 
L 154.957971 107.407849 
L 161.855087 106.625493 
L 169.922406 105.940384 
L 179.60319 105.349098 
L 191.535731 104.851866 
L 206.872504 104.446245 
L 227.723422 104.131204 
L 246.624 103.971389 
L 246.624 103.971389 
" clip-path="url(#pc2eecc216d)" style="fill: none; stroke: #000000; stroke-width: 1.5; stroke-linecap: square"/>
   </g>
   <g id="line2d_9">
    <path d="M 69.338 71.088465 
L 70.401822 90.179864 
L 71.447914 105.121421 
L 72.476276 116.773255 
L 73.486907 125.811923 
L 74.479808 132.771497 
L 75.437248 137.990466 
L 76.376958 141.929902 
L 77.281207 144.79812 
L 78.149995 146.840368 
L 78.965593 148.221674 
L 79.745729 149.131485 
L 80.508135 149.689756 
L 81.252811 149.965712 
L 82.015217 150.013477 
L 82.848544 149.836403 
L 83.788254 149.398957 
L 84.887537 148.631193 
L 86.235046 147.404543 
L 87.972622 145.502883 
L 90.525796 142.344903 
L 98.433542 132.38093 
L 101.536357 128.92967 
L 104.461869 126.003325 
L 107.35192 123.424013 
L 110.259701 121.124692 
L 113.238404 119.051622 
L 116.323489 117.174979 
L 119.568147 115.463195 
L 122.990109 113.910541 
L 126.660296 112.491855 
L 130.614169 111.204098 
L 134.94038 110.031948 
L 139.727581 108.969573 
L 145.082154 108.013921 
L 151.163672 107.160015 
L 158.167169 106.406827 
L 166.411792 105.750064 
L 176.376262 105.187221 
L 188.805254 104.717536 
L 204.993084 104.339944 
L 227.510658 104.052294 
L 246.624 103.919905 
L 246.624 103.919905 
" clip-path="url(#pc2eecc216d)" style="fill: none; stroke-dasharray: 9.6,2.4,1.5,2.4; stroke-dashoffset: 0; stroke: #000000; stroke-width: 1.5"/>
   </g>
   <g id="line2d_10">
    <path d="M 69.338 67.828229 
L 70.401822 88.828768 
L 71.447914 105.264481 
L 72.476276 118.081497 
L 73.486907 128.024033 
L 74.479808 135.679564 
L 75.437248 141.420429 
L 76.376958 145.753809 
L 77.281207 148.908849 
L 78.132265 151.116311 
L 78.947862 152.647148 
L 79.727999 153.657214 
L 80.472674 154.268263 
L 81.19962 154.580269 
L 81.926565 154.651733 
L 82.706701 154.500788 
L 83.57549 154.100207 
L 84.603851 153.368327 
L 85.844977 152.196104 
L 87.42298 150.378829 
L 89.603816 147.498962 
L 100.188849 133.054981 
L 103.114361 129.673278 
L 105.95122 126.730778 
L 108.77035 124.124303 
L 111.62494 121.785757 
L 114.550451 119.674821 
L 117.582345 117.759904 
L 120.773812 116.008255 
L 124.142583 114.41435 
L 127.741849 112.959214 
L 131.6248 111.631742 
L 135.86236 110.421643 
L 140.525448 109.325169 
L 145.720447 108.336099 
L 151.589201 107.449622 
L 158.326742 106.662124 
L 166.199028 105.97189 
L 175.631586 105.375678 
L 187.244981 104.873434 
L 202.120764 104.46347 
L 222.280198 104.144115 
L 246.624 103.942813 
L 246.624 103.942813 
" clip-path="url(#pc2eecc216d)" style="fill: none; stroke-dasharray: 5.55,2.4; stroke-dashoffset: 0; stroke: #000000; stroke-width: 1.5"/>
   </g>
   <g id="line2d_11">
    <path d="M 69.338 103.690828 
L 246.624 103.690828 
L 246.624 103.690828 
" clip-path="url(#pc2eecc216d)" style="fill: none; stroke: #000000; stroke-linecap: square"/>
   </g>
   <g id="patch_3">
    <path d="M 69.338 167.56 
L 69.338 10.8 
" style="fill: none; stroke: #000000; stroke-width: 0.8; stroke-linejoin: miter; stroke-linecap: square"/>
   </g>
   <g id="patch_4">
    <path d="M 246.624 167.56 
L 246.624 10.8 
" style="fill: none; stroke: #000000; stroke-width: 0.8; stroke-linejoin: miter; stroke-linecap: square"/>
   </g>
   <g id="patch_5">
    <path d="M 69.338 167.56 
L 246.624 167.56 
" style="fill: none; stroke: #000000; stroke-width: 0.8; stroke-linejoin: miter; stroke-linecap: square"/>
   </g>
   <g id="patch_6">
    <path d="M 69.338 10.8 
L 246.624 10.8 
" style="fill: none; stroke: #000000; stroke-width: 0.8; stroke-linejoin: miter; stroke-linecap: square"/>
   </g>
   <g id="legend_1">
    <g id="line2d_12">
     <path d="M 89.188813 23.898438 
L 99.188813 23.898438 
L 109.188813 23.898438 
" style="fill: none; stroke: #000000; stroke-width: 1.5; stroke-linecap: square"/>
    </g>
    <g id="text_10">
     <!-- 300K no scaling -->
     <g transform="translate(117.188813 27.398438) scale(0.1 -0.1)">
      <defs>
       <path id="DejaVuSans-33" d="M 2597 2516 
Q 3050 2419 3304 2112 
Q 3559 1806 3559 1356 
Q 3559 666 3084 287 
Q 2609 -91 1734 -91 
Q 1441 -91 1130 -33 
Q 819 25 488 141 
L 488 750 
Q 750 597 1062 519 
Q 1375 441 1716 441 
Q 2309 441 2620 675 
Q 2931 909 2931 1356 
Q 2931 1769 2642 2001 
Q 2353 2234 1838 2234 
L 1294 2234 
L 1294 2753 
L 1863 2753 
Q 2328 2753 2575 2939 
Q 2822 3125 2822 3475 
Q 2822 3834 2567 4026 
Q 2313 4219 1838 4219 
Q 1578 4219 1281 4162 
Q 984 4106 628 3988 
L 628 4550 
Q 988 4650 1302 4700 
Q 1616 4750 1894 4750 
Q 2613 4750 3031 4423 
Q 3450 4097 3450 3541 
Q 3450 3153 3228 2886 
Q 3006 2619 2597 2516 
z
" transform="scale(0.015625)"/>
       <path id="DejaVuSans-4b" d="M 628 4666 
L 1259 4666 
L 1259 2694 
L 3353 4666 
L 4166 4666 
L 1850 2491 
L 4331 0 
L 3500 0 
L 1259 2247 
L 1259 0 
L 628 0 
L 628 4666 
z
" transform="scale(0.015625)"/>
       <path id="DejaVuSans-6f" d="M 1959 3097 
Q 1497 3097 1228 2736 
Q 959 2375 959 1747 
Q 959 1119 1226 758 
Q 1494 397 1959 397 
Q 2419 397 2687 759 
Q 2956 1122 2956 1747 
Q 2956 2369 2687 2733 
Q 2419 3097 1959 3097 
z
M 1959 3584 
Q 2709 3584 3137 3096 
Q 3566 2609 3566 1747 
Q 3566 888 3137 398 
Q 2709 -91 1959 -91 
Q 1206 -91 779 398 
Q 353 888 353 1747 
Q 353 2609 779 3096 
Q 1206 3584 1959 3584 
z
" transform="scale(0.015625)"/>
       <path id="DejaVuSans-73" d="M 2834 3397 
L 2834 2853 
Q 2591 2978 2328 3040 
Q 2066 3103 1784 3103 
Q 1356 3103 1142 2972 
Q 928 2841 928 2578 
Q 928 2378 1081 2264 
Q 1234 2150 1697 2047 
L 1894 2003 
Q 2506 1872 2764 1633 
Q 3022 1394 3022 966 
Q 3022 478 2636 193 
Q 2250 -91 1575 -91 
Q 1294 -91 989 -36 
Q 684 19 347 128 
L 347 722 
Q 666 556 975 473 
Q 1284 391 1588 391 
Q 1994 391 2212 530 
Q 2431 669 2431 922 
Q 2431 1156 2273 1281 
Q 2116 1406 1581 1522 
L 1381 1569 
Q 847 1681 609 1914 
Q 372 2147 372 2553 
Q 372 3047 722 3315 
Q 1072 3584 1716 3584 
Q 2034 3584 2315 3537 
Q 2597 3491 2834 3397 
z
" transform="scale(0.015625)"/>
       <path id="DejaVuSans-63" d="M 3122 3366 
L 3122 2828 
Q 2878 2963 2633 3030 
Q 2388 3097 2138 3097 
Q 1578 3097 1268 2742 
Q 959 2388 959 1747 
Q 959 1106 1268 751 
Q 1578 397 2138 397 
Q 2388 397 2633 464 
Q 2878 531 3122 666 
L 3122 134 
Q 2881 22 2623 -34 
Q 2366 -91 2075 -91 
Q 1284 -91 818 406 
Q 353 903 353 1747 
Q 353 2603 823 3093 
Q 1294 3584 2113 3584 
Q 2378 3584 2631 3529 
Q 2884 3475 3122 3366 
z
" transform="scale(0.015625)"/>
       <path id="DejaVuSans-61" d="M 2194 1759 
Q 1497 1759 1228 1600 
Q 959 1441 959 1056 
Q 959 750 1161 570 
Q 1363 391 1709 391 
Q 2188 391 2477 730 
Q 2766 1069 2766 1631 
L 2766 1759 
L 2194 1759 
z
M 3341 1997 
L 3341 0 
L 2766 0 
L 2766 531 
Q 2569 213 2275 61 
Q 1981 -91 1556 -91 
Q 1019 -91 701 211 
Q 384 513 384 1019 
Q 384 1609 779 1909 
Q 1175 2209 1959 2209 
L 2766 2209 
L 2766 2266 
Q 2766 2663 2505 2880 
Q 2244 3097 1772 3097 
Q 1472 3097 1187 3025 
Q 903 2953 641 2809 
L 641 3341 
Q 956 3463 1253 3523 
Q 1550 3584 1831 3584 
Q 2591 3584 2966 3190 
Q 3341 2797 3341 1997 
z
" transform="scale(0.015625)"/>
       <path id="DejaVuSans-6c" d="M 603 4863 
L 1178 4863 
L 1178 0 
L 603 0 
L 603 4863 
z
" transform="scale(0.015625)"/>
       <path id="DejaVuSans-69" d="M 603 3500 
L 1178 3500 
L 1178 0 
L 603 0 
L 603 3500 
z
M 603 4863 
L 1178 4863 
L 1178 4134 
L 603 4134 
L 603 4863 
z
" transform="scale(0.015625)"/>
       <path id="DejaVuSans-67" d="M 2906 1791 
Q 2906 2416 2648 2759 
Q 2391 3103 1925 3103 
Q 1463 3103 1205 2759 
Q 947 2416 947 1791 
Q 947 1169 1205 825 
Q 1463 481 1925 481 
Q 2391 481 2648 825 
Q 2906 1169 2906 1791 
z
M 3481 434 
Q 3481 -459 3084 -895 
Q 2688 -1331 1869 -1331 
Q 1566 -1331 1297 -1286 
Q 1028 -1241 775 -1147 
L 775 -588 
Q 1028 -725 1275 -790 
Q 1522 -856 1778 -856 
Q 2344 -856 2625 -561 
Q 2906 -266 2906 331 
L 2906 616 
Q 2728 306 2450 153 
Q 2172 0 1784 0 
Q 1141 0 747 490 
Q 353 981 353 1791 
Q 353 2603 747 3093 
Q 1141 3584 1784 3584 
Q 2172 3584 2450 3431 
Q 2728 3278 2906 2969 
L 2906 3500 
L 3481 3500 
L 3481 434 
z
" transform="scale(0.015625)"/>
      </defs>
      <use xlink:href="#DejaVuSans-33"/>
      <use xlink:href="#DejaVuSans-30" x="63.623047"/>
      <use xlink:href="#DejaVuSans-30" x="127.246094"/>
      <use xlink:href="#DejaVuSans-4b" x="190.869141"/>
      <use xlink:href="#DejaVuSans-20" x="256.445312"/>
      <use xlink:href="#DejaVuSans-6e" x="288.232422"/>
      <use xlink:href="#DejaVuSans-6f" x="351.611328"/>
      <use xlink:href="#DejaVuSans-20" x="412.792969"/>
      <use xlink:href="#DejaVuSans-73" x="444.580078"/>
      <use xlink:href="#DejaVuSans-63" x="496.679688"/>
      <use xlink:href="#DejaVuSans-61" x="551.660156"/>
      <use xlink:href="#DejaVuSans-6c" x="612.939453"/>
      <use xlink:href="#DejaVuSans-69" x="640.722656"/>
      <use xlink:href="#DejaVuSans-6e" x="668.505859"/>
      <use xlink:href="#DejaVuSans-67" x="731.884766"/>
     </g>
    </g>
    <g id="line2d_13">
     <path d="M 89.188813 38.576563 
L 99.188813 38.576563 
L 109.188813 38.576563 
" style="fill: none; stroke-dasharray: 9.6,2.4,1.5,2.4; stroke-dashoffset: 0; stroke: #000000; stroke-width: 1.5"/>
    </g>
    <g id="text_11">
     <!-- 450K REST2 scaling -->
     <g transform="translate(117.188813 42.076563) scale(0.1 -0.1)">
      <defs>
       <path id="DejaVuSans-45" d="M 628 4666 
L 3578 4666 
L 3578 4134 
L 1259 4134 
L 1259 2753 
L 3481 2753 
L 3481 2222 
L 1259 2222 
L 1259 531 
L 3634 531 
L 3634 0 
L 628 0 
L 628 4666 
z
" transform="scale(0.015625)"/>
       <path id="DejaVuSans-53" d="M 3425 4513 
L 3425 3897 
Q 3066 4069 2747 4153 
Q 2428 4238 2131 4238 
Q 1616 4238 1336 4038 
Q 1056 3838 1056 3469 
Q 1056 3159 1242 3001 
Q 1428 2844 1947 2747 
L 2328 2669 
Q 3034 2534 3370 2195 
Q 3706 1856 3706 1288 
Q 3706 609 3251 259 
Q 2797 -91 1919 -91 
Q 1588 -91 1214 -16 
Q 841 59 441 206 
L 441 856 
Q 825 641 1194 531 
Q 1563 422 1919 422 
Q 2459 422 2753 634 
Q 3047 847 3047 1241 
Q 3047 1584 2836 1778 
Q 2625 1972 2144 2069 
L 1759 2144 
Q 1053 2284 737 2584 
Q 422 2884 422 3419 
Q 422 4038 858 4394 
Q 1294 4750 2059 4750 
Q 2388 4750 2728 4690 
Q 3069 4631 3425 4513 
z
" transform="scale(0.015625)"/>
       <path id="DejaVuSans-54" d="M -19 4666 
L 3928 4666 
L 3928 4134 
L 2272 4134 
L 2272 0 
L 1638 0 
L 1638 4134 
L -19 4134 
L -19 4666 
z
" transform="scale(0.015625)"/>
       <path id="DejaVuSans-32" d="M 1228 531 
L 3431 531 
L 3431 0 
L 469 0 
L 469 531 
Q 828 903 1448 1529 
Q 2069 2156 2228 2338 
Q 2531 2678 2651 2914 
Q 2772 3150 2772 3378 
Q 2772 3750 2511 3984 
Q 2250 4219 1831 4219 
Q 1534 4219 1204 4116 
Q 875 4013 500 3803 
L 500 4441 
Q 881 4594 1212 4672 
Q 1544 4750 1819 4750 
Q 2544 4750 2975 4387 
Q 3406 4025 3406 3419 
Q 3406 3131 3298 2873 
Q 3191 2616 2906 2266 
Q 2828 2175 2409 1742 
Q 1991 1309 1228 531 
z
" transform="scale(0.015625)"/>
      </defs>
      <use xlink:href="#DejaVuSans-34"/>
      <use xlink:href="#DejaVuSans-35" x="63.623047"/>
      <use xlink:href="#DejaVuSans-30" x="127.246094"/>
      <use xlink:href="#DejaVuSans-4b" x="190.869141"/>
      <use xlink:href="#DejaVuSans-20" x="256.445312"/>
      <use xlink:href="#DejaVuSans-52" x="288.232422"/>
      <use xlink:href="#DejaVuSans-45" x="357.714844"/>
      <use xlink:href="#DejaVuSans-53" x="420.898438"/>
      <use xlink:href="#DejaVuSans-54" x="484.375"/>
      <use xlink:href="#DejaVuSans-32" x="545.458984"/>
      <use xlink:href="#DejaVuSans-20" x="609.082031"/>
      <use xlink:href="#DejaVuSans-73" x="640.869141"/>
      <use xlink:href="#DejaVuSans-63" x="692.96875"/>
      <use xlink:href="#DejaVuSans-61" x="747.949219"/>
      <use xlink:href="#DejaVuSans-6c" x="809.228516"/>
      <use xlink:href="#DejaVuSans-69" x="837.011719"/>
      <use xlink:href="#DejaVuSans-6e" x="864.794922"/>
      <use xlink:href="#DejaVuSans-67" x="928.173828"/>
     </g>
    </g>
    <g id="line2d_14">
     <path d="M 89.188813 53.254688 
L 99.188813 53.254688 
L 109.188813 53.254688 
" style="fill: none; stroke-dasharray: 5.55,2.4; stroke-dashoffset: 0; stroke: #000000; stroke-width: 1.5"/>
    </g>
    <g id="text_12">
     <!-- 450K ssREST3 scaling -->
     <g transform="translate(117.188813 56.754688) scale(0.1 -0.1)">
      <use xlink:href="#DejaVuSans-34"/>
      <use xlink:href="#DejaVuSans-35" x="63.623047"/>
      <use xlink:href="#DejaVuSans-30" x="127.246094"/>
      <use xlink:href="#DejaVuSans-4b" x="190.869141"/>
      <use xlink:href="#DejaVuSans-20" x="256.445312"/>
      <use xlink:href="#DejaVuSans-73" x="288.232422"/>
      <use xlink:href="#DejaVuSans-73" x="340.332031"/>
      <use xlink:href="#DejaVuSans-52" x="392.431641"/>
      <use xlink:href="#DejaVuSans-45" x="461.914062"/>
      <use xlink:href="#DejaVuSans-53" x="525.097656"/>
      <use xlink:href="#DejaVuSans-54" x="588.574219"/>
      <use xlink:href="#DejaVuSans-33" x="649.658203"/>
      <use xlink:href="#DejaVuSans-20" x="713.28125"/>
      <use xlink:href="#DejaVuSans-73" x="745.068359"/>
      <use xlink:href="#DejaVuSans-63" x="797.167969"/>
      <use xlink:href="#DejaVuSans-61" x="852.148438"/>
      <use xlink:href="#DejaVuSans-6c" x="913.427734"/>
      <use xlink:href="#DejaVuSans-69" x="941.210938"/>
      <use xlink:href="#DejaVuSans-6e" x="968.994141"/>
      <use xlink:href="#DejaVuSans-67" x="1032.373047"/>
     </g>
    </g>
   </g>
  </g>
  <g id="axes_2">
   <g id="patch_7">
    <path d="M 270.419 167.56 
L 447.705 167.56 
L 447.705 10.8 
L 270.419 10.8 
z
" style="fill: #ffffff"/>
   </g>
   <g id="matplotlib.axis_3">
    <g id="xtick_5">
     <g id="line2d_15">
      <g>
       <use xlink:href="#meb10163d0d" x="291.276176" y="167.56" style="stroke: #000000; stroke-width: 0.8"/>
      </g>
     </g>
     <g id="text_13">
      <!-- 0.4 -->
      <g transform="translate(281.734301 183.678125) scale(0.12 -0.12)">
       <use xlink:href="#DejaVuSans-30"/>
       <use xlink:href="#DejaVuSans-2e" x="63.623047"/>
       <use xlink:href="#DejaVuSans-34" x="95.410156"/>
      </g>
     </g>
    </g>
    <g id="xtick_6">
     <g id="line2d_16">
      <g>
       <use xlink:href="#meb10163d0d" x="343.419118" y="167.56" style="stroke: #000000; stroke-width: 0.8"/>
      </g>
     </g>
     <g id="text_14">
      <!-- 0.6 -->
      <g transform="translate(333.877243 183.678125) scale(0.12 -0.12)">
       <use xlink:href="#DejaVuSans-30"/>
       <use xlink:href="#DejaVuSans-2e" x="63.623047"/>
       <use xlink:href="#DejaVuSans-36" x="95.410156"/>
      </g>
     </g>
    </g>
    <g id="xtick_7">
     <g id="line2d_17">
      <g>
       <use xlink:href="#meb10163d0d" x="395.562059" y="167.56" style="stroke: #000000; stroke-width: 0.8"/>
      </g>
     </g>
     <g id="text_15">
      <!-- 0.8 -->
      <g transform="translate(386.020184 183.678125) scale(0.12 -0.12)">
       <use xlink:href="#DejaVuSans-30"/>
       <use xlink:href="#DejaVuSans-2e" x="63.623047"/>
       <use xlink:href="#DejaVuSans-38" x="95.410156"/>
      </g>
     </g>
    </g>
    <g id="xtick_8">
     <g id="line2d_18">
      <g>
       <use xlink:href="#meb10163d0d" x="447.705" y="167.56" style="stroke: #000000; stroke-width: 0.8"/>
      </g>
     </g>
     <g id="text_16">
      <!-- 1.0 -->
      <g transform="translate(438.163125 183.678125) scale(0.12 -0.12)">
       <use xlink:href="#DejaVuSans-31"/>
       <use xlink:href="#DejaVuSans-2e" x="63.623047"/>
       <use xlink:href="#DejaVuSans-30" x="95.410156"/>
      </g>
     </g>
    </g>
    <g id="text_17">
     <!-- R / nm -->
     <g transform="translate(336.135906 200.811563) scale(0.14 -0.14)">
      <use xlink:href="#DejaVuSans-52"/>
      <use xlink:href="#DejaVuSans-20" x="69.482422"/>
      <use xlink:href="#DejaVuSans-2f" x="101.269531"/>
      <use xlink:href="#DejaVuSans-20" x="134.960938"/>
      <use xlink:href="#DejaVuSans-6e" x="166.748047"/>
      <use xlink:href="#DejaVuSans-6d" x="230.126953"/>
     </g>
    </g>
   </g>
   <g id="matplotlib.axis_4">
    <g id="ytick_4">
     <g id="line2d_19">
      <g>
       <use xlink:href="#m33d4fa4dc5" x="270.419" y="151.012753" style="stroke: #000000; stroke-width: 0.8"/>
      </g>
     </g>
    </g>
    <g id="ytick_5">
     <g id="line2d_20">
      <g>
       <use xlink:href="#m33d4fa4dc5" x="270.419" y="103.690828" style="stroke: #000000; stroke-width: 0.8"/>
      </g>
     </g>
    </g>
    <g id="ytick_6">
     <g id="line2d_21">
      <g>
       <use xlink:href="#m33d4fa4dc5" x="270.419" y="56.368902" style="stroke: #000000; stroke-width: 0.8"/>
      </g>
     </g>
    </g>
   </g>
   <g id="line2d_22">
    <path d="M 270.419 17.925455 
L 271.518283 44.070493 
L 272.617566 65.133772 
L 273.716849 82.043196 
L 274.798402 95.361277 
L 275.862225 105.82623 
L 276.908317 114.019359 
L 277.936678 120.400078 
L 278.947309 125.332706 
L 279.94021 129.107066 
L 280.89765 131.909351 
L 281.81963 133.958654 
L 282.723879 135.449617 
L 283.592667 136.474672 
L 284.443725 137.15224 
L 285.294783 137.556977 
L 286.181302 137.734743 
L 287.138742 137.694482 
L 288.202564 137.419421 
L 289.44369 136.857351 
L 290.933042 135.92741 
L 292.865652 134.440517 
L 295.737973 131.917647 
L 303.68118 124.826906 
L 307.120872 122.121041 
L 310.400991 119.820549 
L 313.68111 117.79083 
L 317.032151 115.978674 
L 320.525034 114.3437 
L 324.212952 112.86483 
L 328.149095 111.527677 
L 332.422115 110.313807 
L 337.102933 109.218575 
L 342.315663 108.231728 
L 348.184416 107.351735 
L 354.921958 106.571999 
L 362.794244 105.891184 
L 372.226802 105.306126 
L 383.875657 104.815291 
L 398.875553 104.416797 
L 419.371864 104.108953 
L 447.705 103.900814 
L 447.705 103.900814 
" clip-path="url(#p61cf52d657)" style="fill: none; stroke: #000000; stroke-width: 1.5; stroke-linecap: square"/>
   </g>
   <g id="line2d_23">
    <path d="M 270.419 46.513912 
L 271.518283 63.943938 
L 272.617566 77.986124 
L 273.716849 89.259073 
L 274.798402 98.137794 
L 275.862225 105.114429 
L 276.908317 110.576515 
L 277.954409 114.895152 
L 278.98277 118.220021 
L 279.975671 120.713329 
L 280.950842 122.592809 
L 281.908282 123.981007 
L 282.865722 124.991893 
L 283.823162 125.688827 
L 284.816063 126.137075 
L 285.862155 126.361421 
L 286.996899 126.372891 
L 288.291216 126.155035 
L 289.816028 125.662032 
L 291.713178 124.802075 
L 294.337273 123.348511 
L 306.748534 116.163362 
L 310.560565 114.374036 
L 314.408056 112.814326 
L 318.41512 111.431612 
L 322.68814 110.195421 
L 327.315767 109.091555 
L 332.422115 108.106147 
L 338.149025 107.23198 
L 344.709263 106.461346 
L 352.368784 105.792061 
L 361.553117 105.220322 
L 372.936017 104.743573 
L 387.687687 104.359603 
L 408.059886 104.066477 
L 439.176691 103.861678 
L 447.705 103.830819 
L 447.705 103.830819 
" clip-path="url(#p61cf52d657)" style="fill: none; stroke-dasharray: 9.6,2.4,1.5,2.4; stroke-dashoffset: 0; stroke: #000000; stroke-width: 1.5"/>
   </g>
   <g id="line2d_24">
    <path d="M 270.419 103.690828 
L 447.705 103.690828 
L 447.705 103.690828 
" clip-path="url(#p61cf52d657)" style="fill: none; stroke: #000000; stroke-linecap: square"/>
   </g>
   <g id="patch_8">
    <path d="M 270.419 167.56 
L 270.419 10.8 
" style="fill: none; stroke: #000000; stroke-width: 0.8; stroke-linejoin: miter; stroke-linecap: square"/>
   </g>
   <g id="patch_9">
    <path d="M 447.705 167.56 
L 447.705 10.8 
" style="fill: none; stroke: #000000; stroke-width: 0.8; stroke-linejoin: miter; stroke-linecap: square"/>
   </g>
   <g id="patch_10">
    <path d="M 270.419 167.56 
L 447.705 167.56 
" style="fill: none; stroke: #000000; stroke-width: 0.8; stroke-linejoin: miter; stroke-linecap: square"/>
   </g>
   <g id="patch_11">
    <path d="M 270.419 10.8 
L 447.705 10.8 
" style="fill: none; stroke: #000000; stroke-width: 0.8; stroke-linejoin: miter; stroke-linecap: square"/>
   </g>
   <g id="legend_2">
    <g id="line2d_25">
     <path d="M 281.692469 23.898438 
L 291.692469 23.898438 
L 301.692469 23.898438 
" style="fill: none; stroke: #000000; stroke-width: 1.5; stroke-linecap: square"/>
    </g>
    <g id="text_18">
     <!-- 300K no scaling -->
     <g transform="translate(309.692469 27.398438) scale(0.1 -0.1)">
      <use xlink:href="#DejaVuSans-33"/>
      <use xlink:href="#DejaVuSans-30" x="63.623047"/>
      <use xlink:href="#DejaVuSans-30" x="127.246094"/>
      <use xlink:href="#DejaVuSans-4b" x="190.869141"/>
      <use xlink:href="#DejaVuSans-20" x="256.445312"/>
      <use xlink:href="#DejaVuSans-6e" x="288.232422"/>
      <use xlink:href="#DejaVuSans-6f" x="351.611328"/>
      <use xlink:href="#DejaVuSans-20" x="412.792969"/>
      <use xlink:href="#DejaVuSans-73" x="444.580078"/>
      <use xlink:href="#DejaVuSans-63" x="496.679688"/>
      <use xlink:href="#DejaVuSans-61" x="551.660156"/>
      <use xlink:href="#DejaVuSans-6c" x="612.939453"/>
      <use xlink:href="#DejaVuSans-69" x="640.722656"/>
      <use xlink:href="#DejaVuSans-6e" x="668.505859"/>
      <use xlink:href="#DejaVuSans-67" x="731.884766"/>
     </g>
    </g>
    <g id="line2d_26">
     <path d="M 281.692469 38.576562 
L 291.692469 38.576562 
L 301.692469 38.576562 
" style="fill: none; stroke-dasharray: 9.6,2.4,1.5,2.4; stroke-dashoffset: 0; stroke: #000000; stroke-width: 1.5"/>
    </g>
    <g id="text_19">
     <!-- 450K REST2(or 3) scaling -->
     <g transform="translate(309.692469 42.076562) scale(0.1 -0.1)">
      <defs>
       <path id="DejaVuSans-72" d="M 2631 2963 
Q 2534 3019 2420 3045 
Q 2306 3072 2169 3072 
Q 1681 3072 1420 2755 
Q 1159 2438 1159 1844 
L 1159 0 
L 581 0 
L 581 3500 
L 1159 3500 
L 1159 2956 
Q 1341 3275 1631 3429 
Q 1922 3584 2338 3584 
Q 2397 3584 2469 3576 
Q 2541 3569 2628 3553 
L 2631 2963 
z
" transform="scale(0.015625)"/>
      </defs>
      <use xlink:href="#DejaVuSans-34"/>
      <use xlink:href="#DejaVuSans-35" x="63.623047"/>
      <use xlink:href="#DejaVuSans-30" x="127.246094"/>
      <use xlink:href="#DejaVuSans-4b" x="190.869141"/>
      <use xlink:href="#DejaVuSans-20" x="256.445312"/>
      <use xlink:href="#DejaVuSans-52" x="288.232422"/>
      <use xlink:href="#DejaVuSans-45" x="357.714844"/>
      <use xlink:href="#DejaVuSans-53" x="420.898438"/>
      <use xlink:href="#DejaVuSans-54" x="484.375"/>
      <use xlink:href="#DejaVuSans-32" x="545.458984"/>
      <use xlink:href="#DejaVuSans-28" x="609.082031"/>
      <use xlink:href="#DejaVuSans-6f" x="648.095703"/>
      <use xlink:href="#DejaVuSans-72" x="709.277344"/>
      <use xlink:href="#DejaVuSans-20" x="750.390625"/>
      <use xlink:href="#DejaVuSans-33" x="782.177734"/>
      <use xlink:href="#DejaVuSans-29" x="845.800781"/>
      <use xlink:href="#DejaVuSans-20" x="884.814453"/>
      <use xlink:href="#DejaVuSans-73" x="916.601562"/>
      <use xlink:href="#DejaVuSans-63" x="968.701172"/>
      <use xlink:href="#DejaVuSans-61" x="1023.681641"/>
      <use xlink:href="#DejaVuSans-6c" x="1084.960938"/>
      <use xlink:href="#DejaVuSans-69" x="1112.744141"/>
      <use xlink:href="#DejaVuSans-6e" x="1140.527344"/>
      <use xlink:href="#DejaVuSans-67" x="1203.90625"/>
     </g>
    </g>
   </g>
  </g>
 </g>
 <defs>
  <clipPath id="pc2eecc216d">
   <rect x="69.338" y="10.8" width="177.286" height="156.76"/>
  </clipPath>
  <clipPath id="p61cf52d657">
   <rect x="270.419" y="10.8" width="177.286" height="156.76"/>
  </clipPath>
 </defs>
</svg>
